<svg class="lot-data" xmlns="http://www.w3.org/2000/svg" viewBox="0 0 3800 2640">

<g class="lot-numbers">
    <text class="lot-number" transform="translate(1253.18 1151.37)">139</text>
</g>

<g class="lot-paths">
    <path id="_139" data-name="139" class="lot-path" d="M1321.51,1116.47l-3.81,74s-10.48-.82-25.36-6.54l-16.91-7-7.78-3.11s-8.59-4.07-23.17-3.11a251.39,251.39,0,0,0-25.67,4.55l-10.57-40.32L1283,1114Z"/>
</g>

<g class="golf-holes" id="GOLF">
    <path data-id="HOLE1" class="golf-hole" d="M1410.09,1082.15a27.36,27.36,0,0,0,2.89-8.75,30.71,30.71,0,0,1,.84-3.74c1.86-6.38,3.76-13.64,3.76-19.15a92.83,92.83,0,0,1,1-9.27,93.56,93.56,0,0,0,1.15-11.19c0-10.91-7.49-14.32-13.12-15.94a35.22,35.22,0,0,0-8.55-1.3,19.47,19.47,0,0,1-6.82-1.28c-1.39-.52-2.82-1.08-4.3-1.65a165.61,165.61,0,0,0-21.31-7.08c-10.58-2.59-29.06-2.21-38.67,2.46a94.52,94.52,0,0,0-12.94,8.1c-1.66,1.18-3.92,2.78-4.72,3.16-.48.16-1.1.31-1.89.49a43.15,43.15,0,0,0-12.8,5c-3,1.68-6.87,4.43-11.35,7.62-7,5-15.71,11.19-21.35,13.23s-10.4.61-19.91-2.5c-2.5-.82-5.33-1.74-8.39-2.64-16.38-4.79-33.08.77-42.41,7-7.27,4.85-13.79,8.33-18.86,10.09l-2.88,1c-8.25,2.77-15.43,5.32-19.79,8.43-4.07,2.91-6.75,4.59-11.18,7.36l-1.07.67A78.61,78.61,0,0,0,1118.6,1089c-6.31,7.48-9.09,9.08-10.18,9.37-4.28,1.13-15.9,6.83-21.43,10.52-1,.64-1.9,1.24-2.8,1.81-4.36,2.79-8.48,5.42-11.6,10.21-2.4,3.69-3.18,8.16-3.87,12.1a30.25,30.25,0,0,1-1.27,5.5c-3.16,7.36-2,13.76,3.9,20.75s14.58,8.76,22.66,8.76a92.37,92.37,0,0,0,14-1.33c10.56-1.61,15.22-3.57,19.34-5.31l.39-.16c4-1.66,6.54-4.89,8.82-7.73a32.62,32.62,0,0,1,4.46-4.86c.77-.64,1.8-1.51,3-2.55,4.52-3.84,18.27-15.54,22.72-16.79,4.15-1.17,11.13-1.45,17.87-1.72,3-.12,6.07-.25,9-.45,7.77-.54,17.72-2.74,26.49-4.68,3-.66,5.83-1.29,8.37-1.8,6.39-1.3,12.83-3.81,19.66-6.47,4.87-1.9,9.9-3.85,15.46-5.62,12.37-3.93,17.16-3.58,27.75-2.33,12.62,1.48,24.3,2.21,32,2a241.79,241.79,0,0,1,27.11,1.06c10.8,1.08,17.12-1.9,26.27-6.93,2.33-1.28,4.43-2.52,6.27-3.6,5-3,8.36-4.92,12.32-5.66,9-1.69,11.2-3.79,14.64-10.67Z"/>
    <path data-id="DRIVINGRANGE" class="golf-hole" d="M1666,1158.69a38.84,38.84,0,0,1-1.62-5.5c-.4-1.64-.94-3.9-2-7.69h0c-2.81-10.55-7-16.46-11-22.17l-.06-.09c-4.52-6.42-7-8.41-13.49-8.4h-.37c-4.55,0-6.39.88-9.31,3.37-.58.5-1.25,1.06-2.24,1.82-3,2.29-3.85,3-5,3.95l-.93.76a19.9,19.9,0,0,0-9.43-.39c-4.56.83-9.41,3.35-14.11,5.78-3.69,1.91-7.51,3.9-10.21,4.51a35.81,35.81,0,0,1-8.52.44c-4.25-.1-9.06-.21-14,1.39-6.53,2.11-11.06,3.38-21.39,3-10.94-.41-19.64,1.14-28.19,5a28.92,28.92,0,0,1-8.69,2.36c-2.14.35-4.81.78-8.35,1.58l-3.11.7a181.83,181.83,0,0,0-19.41,5.2c-8.26,2.66-16,2.47-24.2,2.27-8.47-.19-11.85,1.85-15.13,5.7a13.9,13.9,0,0,1-1.09,1.19c-.74.69-1.3,1.26-1.76,1.73l-.21.21c-.26,0-.67.12-1.3.2a26.77,26.77,0,0,0-10.1,3.72c-1.11.61-2.26,1.25-3.65,1.9-3.64,1.73-6,4.22-7.08,7.41-1.69,5.1.71,9.6,2.45,12.88.46.86.89,1.67,1.14,2.28,2.57,6.37,8.86,8.37,13.91,10,1.64.52,3.34,1.07,4.9,1.72,2.51,1.06,5,3,6,10.19,1.64,11.45,11.61,13.21,15.87,14l1.31.24a16.34,16.34,0,0,0,3.36.32,58.83,58.83,0,0,0,9.75-1.2c2.58-.46,5.24-.93,7.38-1.07,4.28-.29,7.28-2.08,9.93-3.66a24.94,24.94,0,0,1,12-4.08,153.63,153.63,0,0,0,28.22-5c6.34-1.62,8.52-3.41,10.54-5.41a4,4,0,0,1,1.41-1c2.24-1.08,4.29-.95,11.07-.3l2.79.26c9.15.83,13.82,1.17,20-.12,3.57-.74,7.37-2.47,11.77-4.46,3.13-1.42,6.37-2.89,9.88-4.17,6.74-2.46,17-3.77,27.47-3.49,1.62,0,3.16.11,4.63.18,7.64.34,14.86.66,24.36-3,12.44-4.77,16.08-11,17.71-18.9,1.38-6.69.38-10.06-1.3-14.42C1666.41,1159.87,1666.2,1159.31,1666,1158.69Z"/>
</g>

<g class="focal-points" id="LABELS">
    <path data-id="CLUBHOUSE" class="focal-point" d="M1545.34,1039.27a5,5,0,0,0,8.84-4.49l-13.47-37.7h11.13a8,8,0,0,0,8-8V958a8,8,0,0,0-8-8H1379.45a8,8,0,0,0-8,8v31.09a8,8,0,0,0,8,8h137.19Z"/>
    <path data-id="FEATHERRIVER" class="focal-point" d="M738,571.24h18a8,8,0,0,0,8-8V532.15a8,8,0,0,0-8-8H548.82a8,8,0,0,0-8,8v31.09a8,8,0,0,0,8,8H706.44l67,56.21a5,5,0,0,0,7-7.1Z"/>
    <rect data-id="PLUMASNATIONALFOREST" class="focal-point" x="1777.06" y="31.55" width="374.6" height="47.09" rx="8" ry="8"/>
    <rect data-id="PLUMASNATIONALFOREST" class="focal-point" x="3409.62" y="2174.74" width="374.6" height="47.09" rx="8" ry="8"/>
    <rect data-id="PLUMASNATIONALFOREST" class="focal-point" x="3409.62" y="1381.3" width="374.6" height="47.09" rx="8" ry="8"/>
    <rect data-id="FOREST" class="focal-point" x="1477.69" y="1898.44" width="389.42" height="47.09" rx="8" ry="8"/>
    <path data-id="ALTITUDE" class="focal-point" d="M1541.06,921h132.21l108.47,29.23a5,5,0,0,0,3.11-9.49L1682.62,901V881.88a8,8,0,0,0-8-8H1541.06a8,8,0,0,0-8,8V913A8,8,0,0,0,1541.06,921Z"/>
    <path data-id="LODGE" class="focal-point" d="M2072.82,557.49H1962.33a8,8,0,0,0-8,8v13.84L1882,594.06a5,5,0,0,0,1.37,9.89l71.25-5.37a8,8,0,0,0,7.75,6h110.49a8,8,0,0,0,8-8V565.49A8,8,0,0,0,2072.82,557.49Z"/>
    <path data-id="A15" class="focal-point" d="M826,1649.19l-.11,0a5,5,0,0,0-2.33,0l-.1,0c-7.3,1.72-21.78,9.12-29.79,26-4.33,9.11-4.17,18.76-4.06,25.81,0,1,0,2,0,2.83,0,7.56,3.77,12.68,11.2,15.21,4.72,1.6,21.17,2.46,23.88,2.46s19.15-.86,23.88-2.46c7.43-2.53,11.2-7.64,11.2-15.21,0-.88,0-1.83,0-2.83.12-7,.28-16.69-4.06-25.81C847.79,1658.31,833.32,1650.91,826,1649.19Z"/>
    <polygon data-id="ASCENDRESIDENCES" class="focal-point" points="1985.19 806.75 1959.83 791.3 1938.71 816.52 1914.18 790.06 1893.11 811.91 1879.76 833.25 1858.34 805.79 1877.06 760.1 1898.34 712.48 1884.2 702.82 1867.06 725.19 1855.23 734.68 1840.32 751.36 1825.11 764.51 1846.71 792.4 1833.03 813.84 1822.36 825.63 1808.01 848.33 1805.02 855.76 1825.11 850.76 1871.02 861 1869.98 874.11 1867.78 897.42 1865.01 910.62 1860.56 923.42 1852.05 943.77 1842.23 971.06 1839.32 979.5 1831.9 981.52 1819.78 982.57 1798.37 984.77 1784.66 984.82 1776.47 982.57 1761.43 976.33 1751.11 966.91 1744.95 957.06 1744.22 946.5 1744.22 941.73 1734.59 939.25 1726.11 939.25 1706.21 950.49 1690.77 963.63 1660.03 932.39 1658.21 933.59 1614.33 962.53 1636.15 1007.17 1693.54 993.41 1709.31 1043.48 1732.38 1043.48 1756.3 1051.13 1771.49 1055.77 1786.22 1059.15 1799.32 1058.92 1806.82 1064.74 1813.03 1093.09 1874.58 1086.09 1882.72 1053.55 1890.1 1034.06 1912.91 1030.74 1902.06 962.84 1914.18 962.37 1929.48 964.82 1948.54 971.06 1962.76 981.39 1967.4 970.31 1967.4 956.54 1962.76 923.42 1962.76 913.41 1965.91 884.47 1967.4 874.91 1971.15 849.97 1968.16 845.01 1985.19 806.75"/>
    <polygon data-id="RESIDENCECLUB" class="focal-point" points="1660.65 931.99 1684.48 911.51 1709.31 881.31 1737.17 850.76 1756.3 816.19 1785.27 794.43 1824.72 764.8 1842.23 787.36 1826.95 809.12 1815.99 823.9 1801.6 844.48 1794.65 864.17 1790.84 872.06 1774.96 894.73 1759.15 913.37 1751.28 923.28 1747.19 935.05 1732.38 931.71 1724.15 933.8 1702.97 944.75 1687.48 959.27 1660.65 931.99"/>
</g>

<g class="trail-lines disabled" id="TRAILS">
    <path data-id="TRAIL1" class="trail-line trail-1" d="M2048.84,474.61h-73.75v57.16c-7.58,3.79-15.08,6.83-22,7.41a8,8,0,0,0,.65,16l.67,0c7.77-.65,15.55-3.35,23-6.76h71.37Z"/>
</g>

</svg>
