<svg class="lot-data" version="1.1" xmlns="http://www.w3.org/2000/svg" viewBox="0 0 4320 2800">
  <defs>
    <pattern id="homeIcon" x="0" y="0" width="1" height="1">
      <image x="0" y="0" width="100" height="100" href="/wp-content/plugins/interactive-map/assets/home.svg"></image>
    </pattern>
    <pattern id="pinIcon" x="0" y="0" width="1" height="1">
      <image x="0" y="0" width="100" height="100" href="/wp-content/plugins/interactive-map/assets/map-marker.svg"></image>
    </pattern>
  </defs>
  <g class="lot-paths">
    <circle class="lot-path" r="50" cx="2545" cy="1468" data-name="5" />
    <circle class="lot-path" r="50" cx="2902" cy="1656" data-name="24" />
    <circle class="lot-path" r="50" cx="2981" cy="1314" data-name="26" />
    <circle class="lot-path" r="50" cx="2080" cy="907" data-name="86" />
    <circle class="lot-path" r="50" cx="2124" cy="850" data-name="78" />
    <circle class="lot-path" r="50" cx="2650" cy="860" data-name="61" />
    <circle class="lot-path" r="50" cx="2605" cy="870" data-name="70" />
    <circle class="lot-path" r="50" cx="2316" cy="885" data-name="71" />
    <circle class="lot-path" r="50" cx="2052" cy="993" data-name="98" />
    <circle class="lot-path" r="50" cx="2456" cy="1522" data-name="116" />
    <circle class="lot-path" r="50" cx="2272" cy="1357" data-name="123" />
    <circle class="lot-path" r="50" cx="2248" cy="1314" data-name="125" />
    <circle class="lot-path" r="50" cx="2223" cy="1434" data-name="131" />
    <circle class="lot-path" r="50" cx="2080" cy="1152" data-name="141" />
    <circle class="lot-path" r="50" cx="1767" cy="1462" data-name="176" />
    <circle class="lot-path" r="50" cx="1871" cy="1472" data-name="180" />
    <circle class="lot-path" r="50" cx="1650" cy="1759" data-name="218" />
    <circle class="lot-path" r="50" cx="1354" cy="2091" data-name="234" />
    <circle class="lot-path" r="50" cx="2300" cy="1159" data-name="Boarding House Shares" />
  </g>
  <g class="lot-numbers">
    <text class="lot-number" x="2545" y="1468" data-name="5">5</text>
    <text class="lot-number" x="2902" y="1656" data-name="24">24</text>
    <text class="lot-number" x="2981" y="1314" data-name="26">26</text>
    <text class="lot-number" x="2080" y="907" data-name="86">86</text>
    <text class="lot-number" x="2124" y="850" data-name="78">78</text>
    <text class="lot-number" x="2650" y="860" data-name="61">61</text>
    <text class="lot-number" x="2605" y="870" data-name="70">70</text>
    <text class="lot-number" x="2316" y="885" data-name="71">71</text>
    <text class="lot-number" x="2052" y="993" data-name="98">98</text>
    <text class="lot-number" x="2456" y="1522" data-name="116">116</text>
    <text class="lot-number" x="2272" y="1357" data-name="123">123</text>
    <text class="lot-number" x="2248" y="1314" data-name="125">125</text>
    <text class="lot-number" x="2223" y="1434" data-name="131">131</text>
    <text class="lot-number" x="2080" y="1152" data-name="141">141</text>
    <text class="lot-number" x="1767" y="1462" data-name="176">176</text>
    <text class="lot-number" x="1871" y="1472" data-name="180">180</text>
    <text class="lot-number" x="1650" y="1759" data-name="218">218</text>
    <text class="lot-number" x="1354" y="2091" data-name="234">234</text>
    <text class="lot-number" x="2300" y="1159" data-name="Boarding House Shares">Lodge</text>
  </g>
</svg>
